# xmcd
#
# Track frame offsets: 
#        150
#        22827
#        42887
#        65390
#        79356
#        97880
#        112779
#        137364
#        168265
#        190012
#        206138
#
# Disc length: 3194 seconds
#
# Revision: 0
# Processed by: cddbd v1.5.2PL0 Copyright (c) Steve Scherf et al.
# Submitted via: ExactAudioCopy v0.99pb5
#
DISCID=800c780b
DTITLE=Dana Lyons - Three Legged Coyote
DYEAR=2010
DGENRE=Country
TTITLE0=Crazy Cowboy
TTITLE1=Big Rolling Country
TTITLE2=Three Legged Coyote
TTITLE3=How I Miss Your Dog
TTITLE4=Good Morning World
TTITLE5=Grandma's Up In Heaven, Giving Hell To God
TTITLE6=My Tiny Room
TTITLE7=The Green And Blue
TTITLE8=Patagonia Dam Song
TTITLE9=Blameless
TTITLE10=Sweet New Orleans
EXTD=
EXTT0=
EXTT1=
EXTT2=
EXTT3=
EXTT4=
EXTT5=
EXTT6=
EXTT7=
EXTT8=
EXTT9=
EXTT10=
PLAYORDER=
